<?xml version="1.0" encoding="utf-8"?>
<!-- Generator: Adobe Illustrator 21.0.2, SVG Export Plug-In . SVG Version: 6.00 Build 0)  -->
<svg version="1.1" id="Layer_1" xmlns="http://www.w3.org/2000/svg" xmlns:xlink="http://www.w3.org/1999/xlink" x="0px" y="0px"
	 viewBox="0 0 60 60" style="enable-background:new 0 0 60 60;" xml:space="preserve">
<style type="text/css">
	.st0{fill:#EBEEFF;}
	.st1{fill:#B8C3FF;}
</style>
<title>Group 53</title>
<desc>Created with Sketch.</desc>
<g id="SB-WEB-DESIGN">
	<g id="Group-26">
		<g id="Group-53">
			<circle id="Oval-Copy-3" class="st0" cx="30" cy="30" r="30"/>
			<g id="apple" transform="translate(17.000000, 14.000000)">
				<path id="XMLID_229_" class="st1" d="M1.3,11.1c-2.7,4.6-1,11.6,2,15.9c1.5,2.1,3,4,5,4c0,0,0.1,0,0.1,0c1,0,1.7-0.3,2.3-0.6
					c0.8-0.3,1.5-0.7,2.8-0.7c1.2,0,1.9,0.3,2.6,0.6c0.7,0.3,1.4,0.6,2.5,0.6c2.3,0,3.7-2.1,5-3.9c1.3-1.9,2-3.7,2.2-4.4l0,0
					c0-0.1,0-0.3-0.1-0.3c0,0,0,0,0,0c-0.4-0.2-4-1.7-4-6c0-3.5,2.7-5.3,3.2-5.7l0,0c0.1,0,0.1-0.1,0.1-0.2c0-0.1,0-0.1,0-0.2
					c-1.9-2.7-4.8-3.1-5.9-3.2c-0.2,0-0.3,0-0.5,0C17.3,7,16,7.5,15,7.9c-0.7,0.3-1.3,0.5-1.8,0.5c-0.5,0-1.1-0.2-1.8-0.5
					c-1-0.4-2.1-0.8-3.2-0.8c0,0-0.1,0-0.1,0C5.3,7.1,2.8,8.7,1.3,11.1z"/>
				<path id="XMLID_230_" class="st1" d="M19.7,0C18,0.1,16,1,14.8,2.2c-1,1-2,2.8-1.8,4.6c0,0.1,0.1,0.2,0.2,0.2c0.1,0,0.2,0,0.3,0
					c1.6,0,3.4-0.8,4.6-2.1c1.3-1.4,1.9-3.1,1.7-4.7C20,0.1,19.8,0,19.7,0z"/>
			</g>
		</g>
	</g>
</g>
</svg>
