<?xml version="1.0" encoding="utf-8"?>
<!-- Generator: Adobe Illustrator 21.0.2, SVG Export Plug-In . SVG Version: 6.00 Build 0)  -->
<svg version="1.1" id="Layer_1" xmlns="http://www.w3.org/2000/svg" xmlns:xlink="http://www.w3.org/1999/xlink" x="0px" y="0px"
	 viewBox="0 0 23 20" style="enable-background:new 0 0 23 20;" xml:space="preserve">
<style type="text/css">
	.st0{fill:#FF7979;}
</style>
<title>Shape</title>
<desc>Created with Sketch.</desc>
<g id="Group-13" transform="translate(-20.000000, 3343.000000)">
	<g id="Group-27" transform="translate(141.000000, 215.000000)">
		<g id="Group-8">
			<g id="Group-7" transform="translate(29.000000, 475.000000)">
				<path id="Shape" class="st0" d="M-129.4-4031c-3.3-3.4-7.5-2-9.3,1.1c-1.6-3-6.3-4.3-9.3-1.1c-2.6,2.8-2.6,7.2,0,9.9
					c4.5,4.2,6.8,6.4,8,7.5c0.4,0.3,0.8,0.5,1.3,0.5v0c0.5,0,1-0.2,1.4-0.5c1.2-1.1,3.5-3.3,7.9-7.5c1.3-1.4,2-3.2,2-5
					C-127.5-4027.8-128.1-4029.6-129.4-4031z"/>
			</g>
		</g>
	</g>
</g>
</svg>
